<svg width="64" height="64" viewBox="0 0 64 64" xmlns="http://www.w3.org/2000/svg" aria-label="Eve">
  <defs>
    <linearGradient id="g" x1="0" y1="0" x2="1" y2="1">
      <stop offset="0%" stop-color="#fef3c7"/>
      <stop offset="35%" stop-color="#f5d896"/>
      <stop offset="75%" stop-color="#e8a39e"/>
      <stop offset="100%" stop-color="#a855f7"/>
    </linearGradient>
    <radialGradient id="glow" cx="0.5" cy="0.4" r="0.55">
      <stop offset="0%" stop-color="#fef3c7" stop-opacity="0.55"/>
      <stop offset="100%" stop-color="#f5d896" stop-opacity="0"/>
    </radialGradient>
  </defs>
  <rect width="64" height="64" rx="14" fill="#1a0d2e"/>
  <circle cx="32" cy="28" r="22" fill="url(#glow)"/>
  <path d="M 30 10 C 36 10 41 14 42 19 L 43 23 Q 42 26 41 27 L 44 30 L 49 35 L 43 38 L 45 40 L 43 41 L 45 43 L 43 45 L 40 47 C 36 49 32 49 30 48 L 30 60 L 6 60 C 4 50 4 36 8 26 L 12 18 C 16 10 22 8 30 10 Z" stroke="url(#g)" stroke-width="2.2" stroke-linejoin="round" fill="none"/>
  <path d="M 14 22 Q 9 36 12 56" stroke="url(#g)" stroke-width="1.3" stroke-linecap="round" fill="none" opacity="0.85"/>
  <path d="M 18 22 Q 14 38 18 58" stroke="url(#g)" stroke-width="1.3" stroke-linecap="round" fill="none" opacity="0.7"/>
  <path d="M 24 24 Q 22 42 26 58" stroke="url(#g)" stroke-width="1.1" stroke-linecap="round" fill="none" opacity="0.55"/>
  <path d="M 38 28 Q 40 27 42 28" stroke="url(#g)" stroke-width="1.2" stroke-linecap="round" fill="none" opacity="0.85"/>
  <circle cx="34" cy="40" r="1" fill="#fef3c7" opacity="0.95"/>
  <g transform="translate(52 14)">
    <path d="M 0 -4 L 1 -1 L 4 0 L 1 1 L 0 4 L -1 1 L -4 0 L -1 -1 Z" fill="#fef3c7" opacity="0.95"/>
  </g>
</svg>
